<?xml version="1.0" encoding="UTF-8" standalone="no"?>
<!DOCTYPE svg PUBLIC "-//W3C//DTD SVG 1.1//EN" "http://www.w3.org/Graphics/SVG/1.1/DTD/svg11.dtd">
<svg width="100%" height="100%" viewBox="0 0 2399 529" version="1.1" xmlns="http://www.w3.org/2000/svg" xmlns:xlink="http://www.w3.org/1999/xlink" xml:space="preserve" xmlns:serif="http://www.serif.com/" style="fill-rule:evenodd;clip-rule:evenodd;stroke-linejoin:round;stroke-miterlimit:2;">
    <g transform="matrix(4.16667,0,0,4.16667,0,-0.344155)">
        <path d="M196.526,90.66L210.775,90.66C215.948,90.66 220.614,88.964 220.614,82.688C220.614,76.496 216.796,74.036 211.03,74.036L196.526,74.036L196.526,90.66ZM196.526,64.962L210.011,64.962C214.76,64.962 218.154,62.841 218.154,57.752C218.154,52.071 213.743,50.799 208.994,50.799L196.526,50.799L196.526,64.962ZM183.211,40.451L211.708,40.451C223.242,40.451 231.044,44.183 231.044,55.463C231.044,61.484 228.161,65.471 222.818,68.1C230.282,70.22 233.928,75.903 233.928,83.45C233.928,95.748 223.496,101.006 212.556,101.006L183.211,101.006L183.211,40.451Z" style="fill-rule:nonzero;"/>
        <path d="M238.252,57.159L249.702,57.159L249.702,65.302L249.87,65.302C252.161,59.788 257.842,55.972 263.865,55.972C264.797,55.972 265.645,56.142 266.495,56.396L266.495,67.591C265.392,67.336 263.611,67.167 262.169,67.167C253.264,67.167 250.295,73.443 250.295,81.245L250.295,101.006L238.252,101.006L238.252,57.159Z" style="fill-rule:nonzero;"/>
        <path d="M271.581,57.159L283.625,57.159L283.625,101.006L271.581,101.006L271.581,57.159ZM283.625,50.374L271.581,50.374L271.581,40.451L283.625,40.451L283.625,50.374Z" style="fill-rule:nonzero;"/>
        <path d="M320.94,74.376C319.838,68.27 317.209,65.047 311.356,65.047C303.555,65.047 301.603,70.985 301.349,74.376L320.94,74.376ZM301.349,82.009C301.689,89.727 305.336,93.12 312.121,93.12C316.955,93.12 320.856,90.151 321.619,87.438L332.221,87.438C328.829,97.869 321.619,102.194 311.697,102.194C297.872,102.194 289.307,92.695 289.307,79.125C289.307,65.98 298.381,55.972 311.697,55.972C326.623,55.972 333.917,68.525 332.984,82.009L301.349,82.009Z" style="fill-rule:nonzero;"/>
        <path d="M342.736,65.216L335.527,65.216L335.527,57.159L342.736,57.159L342.736,53.767C342.736,45.965 347.57,40.451 357.408,40.451C359.528,40.451 361.733,40.706 363.769,40.791L363.769,49.78C362.327,49.611 360.801,49.526 359.359,49.526C356.051,49.526 354.779,50.883 354.779,54.529L354.779,57.159L363.091,57.159L363.091,65.216L354.779,65.216L354.779,101.006L342.736,101.006L342.736,65.216Z" style="fill-rule:nonzero;"/>
        <path d="M380.729,96.088L400.576,96.088C409.141,96.088 416.519,93.458 416.519,83.62C416.519,75.818 410.753,71.916 400.576,71.916L380.729,71.916L380.729,96.088ZM380.729,66.997L400.576,66.997C409.736,66.997 414.23,62.418 414.23,56.735C414.23,49.187 409.65,45.371 400.576,45.371L380.729,45.371L380.729,66.997ZM374.963,40.451L400.576,40.451C410.753,40.451 419.997,44.014 419.997,55.294C419.997,61.655 415.757,67.507 409.481,68.862L409.481,69.033C417.284,70.051 422.288,75.903 422.288,83.79C422.288,89.557 420.252,101.006 400.576,101.006L374.963,101.006L374.963,40.451Z" style="fill-rule:nonzero;"/>
        <path d="M460.875,101.006L455.957,101.006L455.957,93.12L455.787,93.12C452.988,98.972 447.221,102.278 440.69,102.278C429.58,102.278 425.34,95.918 425.34,85.656L425.34,57.244L430.682,57.244L430.682,85.741C430.937,93.628 433.905,97.783 442.387,97.783C451.546,97.783 455.533,89.133 455.533,80.228L455.533,57.244L460.875,57.244L460.875,101.006Z" style="fill-rule:nonzero;"/>
        <path d="M479.447,57.244L488.352,57.244L488.352,61.739L479.447,61.739L479.447,91.253C479.447,94.731 479.957,96.767 483.773,97.021C485.301,97.021 486.827,96.936 488.352,96.767L488.352,101.346C486.742,101.346 485.215,101.515 483.603,101.515C476.479,101.515 474.02,99.141 474.104,91.677L474.104,61.739L466.472,61.739L466.472,57.244L474.104,57.244L474.104,44.098L479.447,44.098L479.447,57.244Z" style="fill-rule:nonzero;"/>
        <rect x="496.154" y="40.451" width="5.344" height="60.555" style="fill-rule:nonzero;"/>
        <path d="M543.224,76.072C542.97,68.015 537.88,60.467 529.314,60.467C520.494,60.467 515.83,68.1 514.896,76.072L543.224,76.072ZM514.896,80.567C514.896,88.369 519.138,97.783 529.314,97.783C537.117,97.783 541.357,93.289 543.054,86.589L548.397,86.589C546.106,96.512 540.426,102.278 529.314,102.278C515.405,102.278 509.554,91.593 509.554,79.125C509.554,67.591 515.405,55.972 529.314,55.972C543.307,55.972 548.99,68.27 548.566,80.567L514.896,80.567Z" style="fill-rule:nonzero;"/>
        <path d="M554.077,57.244L558.996,57.244L558.996,67.507L559.165,67.507C561.88,60.382 567.816,56.311 575.704,56.651L575.704,61.993C566.034,61.569 559.42,68.525 559.42,77.684L559.42,101.006L554.077,101.006L554.077,57.244Z" style="fill-rule:nonzero;"/>
    </g>
    <g transform="matrix(4.16667,0,0,4.16667,0,-0.344155)">
        <g transform="matrix(0.24,0,0,0.24,0,0)">
            <path d="M608.625,500.004L47.829,500.004C46.704,500.004 45.625,499.875 44.583,499.671C44.704,499.542 44.917,499.462 45.038,499.296L227.787,316.587L286.333,375.125C297.542,386.296 312.412,392.463 328.25,392.463C344.042,392.463 358.917,386.296 370.125,375.125L428.667,316.546L611.792,499.671C610.75,499.875 609.708,500.004 608.625,500.004ZM627.292,473.917L449.292,295.958L627.292,117.962L627.292,473.917ZM29.163,117.962L207.167,295.958L29.163,473.917L29.163,117.962Z" style="fill:rgb(0,150,199);"/>
        </g>
        <g transform="matrix(0.24,0,0,0.24,0,0)">
            <path d="M142.5,97.338L142.5,150.587C142.5,155.421 144.871,159.921 148.871,162.629C151.333,164.296 154.208,165.171 157.083,165.171C158.871,165.171 160.662,164.837 162.375,164.171L330,98.962L497.625,164.171C499.333,164.837 501.125,165.171 502.917,165.171C505.833,165.171 508.708,164.296 511.167,162.629C515.125,159.921 517.5,155.421 517.5,150.587L517.5,97.338L606.667,97.338L349.496,354.504C337.746,366.212 318.662,366.212 306.954,354.504L49.792,97.338L142.5,97.338Z" style="fill:white;"/>
        </g>
        <path d="M78.769,35.861C82.39,35.861 85.32,38.791 85.32,42.411C85.32,46.021 82.39,48.951 78.769,48.951C75.16,48.951 72.229,46.021 72.229,42.411C72.229,38.791 75.16,35.861 78.769,35.861Z" style="fill-rule:nonzero;"/>
        <path d="M78.769,57.771C82.39,57.771 85.32,60.701 85.32,64.321C85.32,67.931 82.39,70.861 78.769,70.861C75.16,70.861 72.229,67.931 72.229,64.321C72.229,60.701 75.16,57.771 78.769,57.771Z" style="fill-rule:nonzero;"/>
        <path d="M150.55,113.74L107.83,71.03L150.55,28.311L150.55,113.74ZM146.07,120.001L11.479,120.001C11.209,120.001 10.95,119.97 10.7,119.921C10.729,119.89 10.78,119.871 10.809,119.831L54.669,75.981L68.72,90.03C71.41,92.711 74.979,94.191 78.78,94.191C82.57,94.191 86.14,92.711 88.83,90.03L102.88,75.971L146.83,119.921C146.58,119.97 146.33,120.001 146.07,120.001ZM6.999,28.311L49.72,71.03L6.999,113.74L6.999,28.311ZM34.2,23.361L34.2,36.141C34.2,37.301 34.769,38.381 35.729,39.031C36.32,39.431 37.01,39.641 37.7,39.641C38.129,39.641 38.559,39.561 38.97,39.401L79.2,23.751L119.43,39.401C119.84,39.561 120.27,39.641 120.7,39.641C121.4,39.641 122.09,39.431 122.68,39.031C123.63,38.381 124.2,37.301 124.2,36.141L124.2,23.361L145.6,23.361L83.879,85.081C81.059,87.891 76.479,87.891 73.669,85.081L11.95,23.361L34.2,23.361ZM146.07,16.361L124.2,16.361L124.2,3.581C124.2,2.431 123.63,1.351 122.68,0.701C121.73,0.041 120.51,-0.099 119.43,0.321L79.2,15.981L38.97,0.321C37.89,-0.099 36.68,0.041 35.729,0.701C34.769,1.351 34.2,2.431 34.2,3.581L34.2,16.361L11.479,16.361C5.15,16.361 0,21.511 0,27.841L0,115.52C0,121.85 5.15,127.001 11.479,127.001L146.07,127.001C152.4,127.001 157.55,121.85 157.55,115.52L157.55,27.841C157.55,21.511 152.4,16.361 146.07,16.361Z" style="fill-rule:nonzero;"/>
    </g>
</svg>
