<?xml version="1.0" encoding="UTF-8" standalone="no"?>
<!DOCTYPE svg PUBLIC "-//W3C//DTD SVG 1.1//EN" "http://www.w3.org/Graphics/SVG/1.1/DTD/svg11.dtd">
<svg width="100%" height="100%" viewBox="0 0 657 529" version="1.1" xmlns="http://www.w3.org/2000/svg" xmlns:xlink="http://www.w3.org/1999/xlink" xml:space="preserve" xmlns:serif="http://www.serif.com/" style="fill-rule:evenodd;clip-rule:evenodd;stroke-linejoin:round;stroke-miterlimit:2;">
    <path d="M142.5,96.993L142.5,150.243C142.5,155.077 144.871,159.577 148.871,162.285C151.333,163.952 154.208,164.827 157.083,164.827C158.871,164.827 160.662,164.493 162.375,163.827L330,98.618L497.625,163.827C499.333,164.493 501.125,164.827 502.917,164.827C505.833,164.827 508.708,163.952 511.167,162.285C515.125,159.577 517.5,155.077 517.5,150.243L517.5,96.993L606.667,96.993L349.496,354.16C337.746,365.868 318.662,365.868 306.954,354.16L49.792,96.993L142.5,96.993Z" style="fill:white;"/>
    <path d="M608.625,499.66L47.829,499.66C46.704,499.66 45.625,499.531 44.583,499.327C44.704,499.198 44.917,499.118 45.038,498.952L227.787,316.243L286.333,374.781C297.542,385.952 312.412,392.118 328.25,392.118C344.042,392.118 358.917,385.952 370.125,374.781L428.667,316.202L611.792,499.327C610.75,499.531 609.708,499.66 608.625,499.66ZM627.292,473.573L449.292,295.614L627.292,117.618L627.292,473.573ZM29.163,117.618L207.167,295.614L29.163,473.573L29.163,117.618Z" style="fill:rgb(0,150,199);"/>
    <g transform="matrix(4.16667,0,0,4.16667,0,-0.344155)">
        <path d="M78.769,57.771C82.39,57.771 85.32,60.701 85.32,64.321C85.32,67.931 82.39,70.861 78.769,70.861C75.16,70.861 72.229,67.931 72.229,64.321C72.229,60.701 75.16,57.771 78.769,57.771Z" style="fill-rule:nonzero;"/>
    </g>
    <g transform="matrix(4.16667,0,0,4.16667,0,-0.344155)">
        <path d="M78.769,35.861C82.39,35.861 85.32,38.791 85.32,42.411C85.32,46.021 82.39,48.951 78.769,48.951C75.16,48.951 72.229,46.021 72.229,42.411C72.229,38.791 75.16,35.861 78.769,35.861Z" style="fill-rule:nonzero;"/>
    </g>
    <g transform="matrix(4.16667,0,0,4.16667,0,-0.344155)">
        <path d="M150.55,113.74L107.83,71.03L150.55,28.311L150.55,113.74ZM146.07,120.001L11.479,120.001C11.209,120.001 10.95,119.97 10.7,119.921C10.729,119.89 10.78,119.871 10.809,119.831L54.669,75.981L68.72,90.03C71.41,92.711 74.979,94.191 78.78,94.191C82.57,94.191 86.14,92.711 88.83,90.03L102.88,75.971L146.83,119.921C146.58,119.97 146.33,120.001 146.07,120.001ZM6.999,28.311L49.72,71.03L6.999,113.74L6.999,28.311ZM34.2,23.361L34.2,36.141C34.2,37.301 34.769,38.381 35.729,39.031C36.32,39.431 37.01,39.641 37.7,39.641C38.129,39.641 38.559,39.561 38.97,39.401L79.2,23.751L119.43,39.401C119.84,39.561 120.27,39.641 120.7,39.641C121.4,39.641 122.09,39.431 122.68,39.031C123.63,38.381 124.2,37.301 124.2,36.141L124.2,23.361L145.6,23.361L83.879,85.081C81.059,87.891 76.479,87.891 73.669,85.081L11.95,23.361L34.2,23.361ZM146.07,16.361L124.2,16.361L124.2,3.581C124.2,2.431 123.63,1.351 122.68,0.701C121.73,0.041 120.51,-0.099 119.43,0.321L79.2,15.981L38.97,0.321C37.89,-0.099 36.68,0.041 35.729,0.701C34.769,1.351 34.2,2.431 34.2,3.581L34.2,16.361L11.479,16.361C5.15,16.361 0,21.511 0,27.841L0,115.52C0,121.85 5.15,127.001 11.479,127.001L146.07,127.001C152.4,127.001 157.55,121.85 157.55,115.52L157.55,27.841C157.55,21.511 152.4,16.361 146.07,16.361Z" style="fill-rule:nonzero;"/>
    </g>
</svg>
